<svg width="855" height="578" viewBox="0 0 855 578" fill="none" xmlns="http://www.w3.org/2000/svg">
<g clip-path="url(#clip0)">
<path d="M261.559 268H151.559V391H261.559V268Z" fill="#E8F5FF"/>
<path d="M208.005 541.232L206.116 567.067C206.03 568.236 206.196 569.411 206.601 570.511C207.006 571.611 207.642 572.612 208.466 573.446C209.29 574.28 210.283 574.929 211.378 575.348C212.473 575.767 213.645 575.947 214.816 575.876L228.085 575.073C228.7 575.035 229.299 574.863 229.84 574.568C230.381 574.273 230.85 573.862 231.214 573.366C231.578 572.869 231.829 572.298 231.947 571.693C232.066 571.089 232.05 570.466 231.901 569.868L224.535 540.405L208.005 541.232Z" fill="#B9E1FF"/>
<path d="M319.001 556.509C334.619 560.163 345.775 565.356 353.104 572.384C355.714 574.867 359.129 576.331 362.728 576.509C367.324 576.751 371.082 576.236 373.907 574.974H373.907C374.631 574.655 375.256 574.148 375.717 573.506C376.179 572.864 376.46 572.111 376.532 571.323C376.618 570.523 376.488 569.715 376.156 568.982C375.824 568.25 375.302 567.619 374.644 567.156L337.604 540.802L321.871 547.096L318.201 550.766C317.803 551.163 317.504 551.648 317.325 552.18C317.147 552.713 317.094 553.28 317.171 553.837C317.249 554.393 317.455 554.924 317.772 555.388C318.09 555.852 318.51 556.236 319.001 556.509H319.001Z" fill="#B9E1FF"/>
<path d="M270.94 134.694L165.066 133.714C165.333 118.293 168.92 103.151 176.763 89.6003C181.914 80.7008 181.803 71.0155 180.561 62.8559C178.646 50.2639 183.1 37.3804 192.998 29.3647C200.563 23.2283 210.11 20.0696 219.841 20.4833L221.897 20.569C228.593 20.8473 235.112 22.8034 240.856 26.2577C246.599 29.7121 251.383 34.554 254.767 40.3388C258.207 46.5144 259.595 53.6238 258.729 60.6395C258.058 67.2408 259.663 73.9094 263.419 80.6414C269.899 95.424 271.302 114.34 270.94 134.694Z" fill="#2F2E41"/>
<path d="M341.774 542.177L320.995 547.597L219.812 327.162L226.136 542.177H205.357C183.153 441.018 143.066 324.27 161.089 287.411L268.597 281.087L341.774 542.177Z" fill="#3AFFDC"/>
<path d="M218.909 97.6911C234.376 97.6911 246.915 85.1523 246.915 69.6849C246.915 54.2175 234.376 41.6787 218.909 41.6787C203.441 41.6787 190.902 54.2175 190.902 69.6849C190.902 85.1523 203.441 97.6911 218.909 97.6911Z" fill="#FFB9B9"/>
<path d="M243.301 121.18L197.227 118.47C201.742 108.106 203.546 98.1266 201.744 88.6572H236.074C235.996 95.9278 239.614 108.505 243.301 121.18Z" fill="#FFB9B9"/>
<path d="M272.21 289.217L171.027 296.445L181.416 117.115L199.033 112.146L218.908 116.663L238.783 106.725L251.431 111.243L272.21 289.217Z" fill="#3AFFDC"/>
<path d="M188.194 418.407L119.082 402.597C139.633 334.449 176.656 178.546 164.705 122.987L200.842 106.726L188.194 418.407Z" fill="#E8F5FF"/>
<path d="M154.766 221.46L128.566 205.198L150.91 139.759C153.402 133.006 158.175 127.337 164.404 123.731L171.931 119.373L167.414 185.323L154.766 221.46Z" fill="#E8F5FF"/>
<path d="M332.29 403.501C310.476 416.121 255.95 423.156 232.009 414.342C230.248 352.769 226.793 178.603 237.882 104.919L277.632 121.181L274.019 169.966C255.015 211.698 310.198 357.054 332.29 403.501Z" fill="#E8F5FF"/>
<path d="M329.127 213.33L304.734 205.199L272.211 168.158L277.632 121.18L331.837 197.068L329.127 213.33Z" fill="#E8F5FF"/>
<path d="M252.683 248.494C253.082 250.245 254.159 251.767 255.679 252.725C257.198 253.684 259.035 254 260.788 253.606L281.494 248.917L278.501 235.7L257.795 240.388C256.042 240.786 254.519 241.863 253.561 243.383C252.602 244.903 252.286 246.741 252.683 248.494V248.494Z" fill="#FFB9B9"/>
<path d="M243.301 62.4578C227.745 56.0613 212.382 55.5984 197.226 61.5544L190.902 38.9688H248.722L243.301 62.4578Z" fill="#2F2E41"/>
<path d="M271.309 233.205L283.053 254.888C302.807 249.378 319.927 232.009 336.355 211.523L331.838 197.068L303.832 204.296L271.309 233.205Z" fill="#E8F5FF"/>
<path d="M262.726 188.485H259.112C259.112 137.375 248.588 101.756 238.333 101.756L237.43 98.1426C246.627 98.1426 252.49 112.967 255.789 125.403C260.262 142.262 262.726 164.665 262.726 188.485Z" fill="#3F3D56"/>
<path d="M179.61 175.838H175.996C175.996 129.029 186.592 99.9502 202.195 99.9502L201.292 103.564C190.499 103.564 179.61 125.912 179.61 175.838Z" fill="#3F3D56"/>
<path d="M260.917 198.423C265.907 198.423 269.951 194.378 269.951 189.389C269.951 184.399 265.907 180.354 260.917 180.354C255.928 180.354 251.883 184.399 251.883 189.389C251.883 194.378 255.928 198.423 260.917 198.423Z" fill="#3F3D56"/>
<path d="M165.157 197.519H161.543C161.543 184.567 168.838 174.03 177.805 174.03V177.644C170.83 177.644 165.157 186.56 165.157 197.519Z" fill="#3F3D56"/>
<path d="M194.066 197.519H190.453C190.453 186.56 184.779 177.644 177.805 177.644V174.03C186.771 174.03 194.066 184.567 194.066 197.519Z" fill="#3F3D56"/>
<path d="M192.258 202.037C194.254 202.037 195.872 200.419 195.872 198.423C195.872 196.427 194.254 194.81 192.258 194.81C190.262 194.81 188.645 196.427 188.645 198.423C188.645 200.419 190.262 202.037 192.258 202.037Z" fill="#3F3D56"/>
<path d="M163.348 202.037C165.344 202.037 166.962 200.419 166.962 198.423C166.962 196.427 165.344 194.81 163.348 194.81C161.352 194.81 159.734 196.427 159.734 198.423C159.734 200.419 161.352 202.037 163.348 202.037Z" fill="#3F3D56"/>
<path d="M118.176 165.193L140.723 169.219L192.257 242.495L164.879 236.053L118.176 165.193Z" fill="#18D0AF"/>
<path d="M114.178 164.296C113.834 164.301 113.498 164.398 113.205 164.578C112.912 164.757 112.673 165.012 112.512 165.316C112.351 165.619 112.275 165.961 112.291 166.304C112.307 166.647 112.416 166.98 112.604 167.267L160.776 240.355C161.045 240.763 161.46 241.053 161.936 241.165L184.349 246.438C184.726 246.527 185.122 246.499 185.484 246.358C185.846 246.217 186.156 245.969 186.373 245.647C186.591 245.326 186.705 244.945 186.702 244.557C186.698 244.169 186.576 243.791 186.353 243.474L133.464 168.272C133.32 168.067 133.138 167.892 132.927 167.758C132.716 167.624 132.481 167.532 132.234 167.489L114.539 164.329C114.42 164.307 114.299 164.296 114.178 164.296V164.296Z" fill="#3F3D56"/>
<path d="M144.227 216.553L145.565 230.038L166.692 227.941C168.48 227.764 170.125 226.883 171.263 225.493C172.402 224.103 172.943 222.318 172.765 220.529C172.588 218.741 171.707 217.097 170.317 215.958C168.927 214.819 167.142 214.279 165.353 214.456L144.227 216.553Z" fill="#FFB9B9"/>
<path d="M125.855 214.991C125.886 219.589 127.733 223.989 130.993 227.231C134.254 230.474 138.664 232.296 143.262 232.302H146.736L149.265 211.226L128.325 203.688L125.855 214.991Z" fill="#E8F5FF"/>
<path d="M673.676 85.138L615.674 94.9167C614.241 95.1601 612.768 94.8657 611.541 94.0904C610.314 93.3151 609.419 92.1141 609.03 90.7199C604.839 75.6622 596.078 56.019 604.584 46.1581C605.017 42.0097 607.041 38.1875 610.234 35.4873C613.427 32.787 617.543 31.4166 621.725 31.6615C632.086 15.514 649.345 17.9385 661.01 28.0233C672.75 32.0561 677.175 39.2206 675.628 48.9432C680.699 53.3627 683.358 58.3408 683.919 63.8047C684.185 66.8452 683.796 69.9073 682.779 72.7864C681.762 75.6656 680.14 78.2957 678.021 80.5013L673.676 85.138Z" fill="#2F2E41"/>
<path d="M665 131L620 128.333C624.41 118.136 626.172 108.317 624.412 99H657.941C657.865 106.154 661.399 118.528 665 131Z" fill="#9F616A"/>
<path d="M610.843 546.792L609.021 571.545C608.939 572.666 609.098 573.791 609.489 574.845C609.88 575.899 610.493 576.858 611.287 577.657C612.082 578.456 613.039 579.078 614.094 579.479C615.15 579.881 616.28 580.054 617.408 579.986L630.201 579.215C630.794 579.18 631.371 579.015 631.893 578.732C632.414 578.449 632.866 578.056 633.217 577.58C633.569 577.104 633.81 576.557 633.924 575.978C634.039 575.399 634.023 574.802 633.879 574.229L626.778 546L610.843 546.792Z" fill="#B9E1FF"/>
<path d="M652.511 546L645.126 574.229C644.976 574.802 644.96 575.399 645.079 575.978C645.198 576.557 645.449 577.104 645.814 577.58C646.179 578.056 646.649 578.449 647.192 578.732C647.734 579.015 648.334 579.18 648.951 579.215L662.255 579.986C663.429 580.054 664.604 579.881 665.702 579.479C666.8 579.078 667.795 578.456 668.621 577.657C669.447 576.858 670.085 575.899 670.491 574.845C670.898 573.791 671.064 572.666 670.978 571.545L669.083 546.792L652.511 546Z" fill="#B9E1FF"/>
<path d="M669.906 550L652.361 548.244L634.893 362.057L628.291 547.644L611.054 547.028L582 290H693L669.906 550Z" fill="#3AFFDC"/>
<path d="M642 110C660.225 110 675 95.0015 675 76.5C675 57.9985 660.225 43 642 43C623.775 43 609 57.9985 609 76.5C609 95.0015 623.775 110 642 110Z" fill="#9F616A"/>
<path d="M679 60.7533C665.646 58.4176 652.516 58.0969 639.752 61.0596C631.622 63.7326 621.858 63.4863 611 61.2839V39L669.621 40.0611L679 60.7533Z" fill="#2F2E41"/>
<path d="M664.131 103.59C649.408 109.591 633.97 109.348 617.902 103.59C622.577 95.7684 615.588 89.6428 612 81.7474L672 80C667.412 86.8589 660.641 94.9626 664.131 103.59Z" fill="white"/>
<path d="M608.292 76.7761L607.707 77.4785L613.559 82.3573L614.144 81.6549L608.292 76.7761Z" fill="white"/>
<path d="M672.958 86.6416L662.715 102.741L663.485 103.232L673.729 87.1324L672.958 86.6416Z" fill="white"/>
<path d="M609.361 86.6402L608.59 87.1309L618.831 103.232L619.601 102.741L609.361 86.6402Z" fill="white"/>
<path d="M578.593 229L553 213.071L574.826 148.969C577.261 142.355 581.923 136.801 588.008 133.268L595.361 129L596 193.667L578.593 229Z" fill="#3AFFDC"/>
<path d="M688.851 260.173L685.059 227.678C684.857 210.526 687.773 193.944 694.728 178.665L698.263 130.916L659.376 115C659.257 115.793 659.155 116.585 659.042 117.378L640.817 126.495L623.042 122.453L623.141 116.769L587.79 132.685C599.48 187.063 593.104 243.533 573 310.233L619.572 322.974L619.959 300.6L661.465 297.634C661.893 304.893 662.236 312.023 662.436 318.995C685.856 327.622 686.661 327.479 708 315.127C699.502 297.251 692.773 278.649 688.851 260.173Z" fill="#3AFFDC"/>
<path d="M748.377 221L724.766 213.059L687 168.697L698.532 131L751 205.118L748.377 221Z" fill="#3AFFDC"/>
<path d="M674.162 255.035C674.547 256.683 675.588 258.114 677.056 259.016C678.524 259.917 680.3 260.215 681.993 259.844L702 255.433L699.108 243L679.101 247.41C677.408 247.784 675.936 248.797 675.01 250.227C674.083 251.657 673.778 253.386 674.162 255.035V255.035Z" fill="#E8F5FF"/>
<path d="M692 240.625L703.556 262C722.992 256.569 739.836 239.445 756 219.25L751.556 205L724 212.125L692 240.625Z" fill="#3AFFDC"/>
<path d="M543 174L564.913 177.906L615 249L588.391 242.75L543 174Z" fill="#E6E6E6"/>
<path d="M538.853 173C538.516 173.005 538.186 173.1 537.899 173.274C537.611 173.449 537.377 173.697 537.219 173.993C537.061 174.288 536.986 174.62 537.002 174.954C537.018 175.289 537.124 175.612 537.309 175.892L584.566 247.029C584.83 247.427 585.237 247.709 585.704 247.818L607.692 252.95C608.062 253.037 608.451 253.01 608.806 252.872C609.16 252.735 609.464 252.493 609.678 252.18C609.891 251.867 610.003 251.497 610 251.119C609.996 250.742 609.877 250.374 609.658 250.065L557.773 176.87C557.632 176.67 557.453 176.5 557.246 176.37C557.039 176.239 556.808 176.15 556.567 176.108L539.207 173.032C539.09 173.011 538.972 173 538.853 173Z" fill="#3F3D56"/>
<path d="M568 224.046L569.312 237L590.016 234.986C591.768 234.815 593.38 233.969 594.496 232.634C595.612 231.299 596.141 229.584 595.968 227.866C595.794 226.148 594.931 224.568 593.568 223.474C592.206 222.38 590.456 221.861 588.704 222.032L568 224.046Z" fill="#E8F5FF"/>
<path d="M550 223.061C550.03 227.56 551.845 231.866 555.048 235.039C558.251 238.211 562.584 239.995 567.102 240H570.515L573 219.377L552.426 212L550 223.061Z" fill="#3AFFDC"/>
<path d="M670.603 82L670 81.31L670.911 80.2677L676.353 73L677 73.6344L671.536 80.9294L670.603 82Z" fill="white"/>
<path d="M414.34 203.476C411.638 203.476 409.299 202.273 408.751 199.629L401.179 163.377L396.192 171.983C395.168 173.724 393.296 174.956 391.283 174.956H363.705C360.556 174.956 358 172.4 358 169.261C358 166.108 360.556 163.547 363.705 163.547H388.023L398.865 145.225C400.063 143.202 402.362 142.101 404.71 142.498C407.034 142.887 408.882 144.662 409.358 146.966L413.942 169.116L424.396 111.117C424.886 108.401 427.248 106.514 430.013 106.514C430.018 106.514 430.033 106.514 430.037 106.514C432.807 106.514 435.17 108.435 435.635 111.161L446.793 176.266L450.383 167.171C451.236 164.988 453.342 163.537 455.685 163.537H506.295C509.444 163.537 512 166.089 512 169.247C512 172.39 509.448 174.952 506.295 174.952H459.556L449.902 199.347C448.971 201.724 446.594 203.165 444.008 202.923C441.476 202.651 439.414 200.73 438.978 198.207L429.877 145.016L419.952 199.469C419.467 202.161 417.143 203.466 414.412 203.466C414.388 203.476 414.364 203.476 414.34 203.476Z" fill="#3AFFDC"/>
</g>
<defs>
<clipPath id="clip0">
<rect width="854.557" height="577.897" fill="white"/>
</clipPath>
</defs>
</svg>
