<svg width="1106" height="783" viewBox="0 0 1106 783" fill="none" xmlns="http://www.w3.org/2000/svg">
<g clip-path="url(#clip0)">
<path opacity="0.1" d="M367.381 782.3C421.196 782.3 464.821 775.293 464.821 766.65C464.821 758.007 421.196 751 367.381 751C313.567 751 269.941 758.007 269.941 766.65C269.941 775.293 313.567 782.3 367.381 782.3Z" fill="#37BAE5"/>
<path opacity="0.1" d="M692.89 233.3H659.18V276.99H692.89V233.3Z" fill="#00E689"/>
<path opacity="0.1" d="M912.838 351.6H884.398V380.04H912.838V351.6Z" fill="#00E689"/>
<path opacity="0.1" d="M912.838 421.75H884.398V450.19H912.838V421.75Z" fill="#00E689"/>
<path opacity="0.1" d="M912.838 491.89H884.398V520.33H912.838V491.89Z" fill="#00E689"/>
<path opacity="0.1" d="M912.838 562.04H884.398V590.48H912.838V562.04Z" fill="#00E689"/>
<path d="M461.599 379.67C461.599 379.67 457.659 379.12 457.659 373.38C457.659 367.64 454.839 356.92 454.839 356.92C454.839 356.87 452.399 338.25 449.029 335.29C445.659 332.33 441.329 314.95 441.329 314.95C441.329 314.95 440.589 305.52 439.079 303.49C437.569 301.46 435.529 296.49 432.519 289.4C429.509 282.31 416.959 277.4 416.959 277.4C416.959 277.4 394.269 264.24 387.839 259.95C387.254 259.598 386.708 259.186 386.209 258.72C385.089 257.25 380.209 257.22 380.209 257.22C379.699 254 379.209 250.3 379.049 246.95C379.049 246.59 379.049 246.23 378.999 245.87C386.169 241.632 391.569 234.95 394.209 227.05C394.329 226.67 394.429 226.27 394.539 225.89C394.969 225.749 395.364 225.519 395.7 225.216C396.035 224.913 396.304 224.543 396.489 224.13C397.069 222.84 397.079 221.33 397.799 220.13C398.639 218.71 400.239 217.95 401.499 216.88C404.679 214.18 405.499 209.63 405.349 205.49C405.249 202.14 404.709 198.76 404.919 195.43L404.979 194.59C405.039 194.09 405.109 193.59 405.199 193.11C405.689 190.63 406.759 188.29 407.359 185.83C407.959 183.37 408.019 180.6 406.619 178.48C404.569 175.37 400.299 174.75 396.549 174.43C392.299 174.07 388.499 174.54 385.779 171.01C384.506 169.165 383.074 167.435 381.499 165.84C380.939 165.32 375.499 162 375.499 161.78C370.189 159.321 364.171 158.86 358.549 160.48C355.729 161.3 353.069 162.64 350.209 163.31C344.039 164.77 336.939 163.19 331.699 166.72C328.779 168.72 327.029 171.9 325.389 175C324.056 177.554 322.702 180.104 321.329 182.65C319.119 186.84 316.869 191.1 315.939 195.74C315.743 196.75 315.623 197.773 315.579 198.8V198.85C315.579 199.22 315.579 199.59 315.579 199.96V200.43C315.579 200.78 315.579 201.12 315.639 201.43C315.699 201.74 315.689 201.84 315.719 202.05C315.749 202.26 315.799 202.73 315.859 203.05C315.919 203.37 316.039 203.93 316.159 204.37C316.209 204.56 316.279 204.74 316.339 204.92C316.439 205.26 316.559 205.59 316.689 205.92C316.759 206.09 316.829 206.27 316.909 206.44C317.059 206.79 317.239 207.13 317.419 207.44C317.499 207.58 317.559 207.71 317.639 207.84C317.918 208.305 318.225 208.753 318.559 209.18C320.699 211.85 323.849 213.55 326.179 216.05C326.179 216.15 326.179 216.25 326.179 216.34C326.179 216.62 326.179 216.89 326.179 217.17C326.303 222.746 327.787 228.207 330.502 233.078C333.217 237.949 337.082 242.083 341.759 245.12C341.759 245.5 341.809 245.89 341.829 246.27C342.024 249.239 341.987 252.218 341.719 255.18C341.312 254.701 340.802 254.319 340.227 254.063C339.653 253.806 339.028 253.683 338.399 253.7C337.969 253.679 337.539 253.716 337.119 253.81L337.029 253.74V253.83C334.829 254.37 332.119 256.66 329.529 263.17C329.529 263.17 321.649 272.05 315.649 271.68C309.649 271.31 294.459 280.92 294.459 280.92C294.459 280.92 279.639 290.54 276.459 300.34C274.681 305.898 272.55 311.335 270.079 316.62L251.759 354.37L248.379 384.32C248.379 384.32 250.249 397.64 249.879 399.67C249.509 401.7 257.569 420.01 257.569 420.01C257.569 420.01 284.199 466.8 295.079 469.2L295.859 468.65C296.324 468.894 296.818 469.078 297.329 469.2L299.569 467.62C299.703 469.381 299.646 471.152 299.399 472.9C297.899 477.52 299.959 507.67 302.579 513.58C305.199 519.49 304.269 596.98 304.269 596.98L303.899 603.82C303.899 603.82 303.899 604.04 303.989 604.42L303.899 606.04L304.169 606.18C304.449 608.35 304.358 610.551 303.899 612.69C302.959 615.69 302.579 624.17 302.579 624.17C302.579 624.17 295.089 672.05 298.639 681.67C302.189 691.29 305.209 701.83 305.209 701.83C305.209 701.83 308.959 713.83 305.389 715.88C301.819 717.93 291.669 721.37 293.759 726.37C295.659 730.99 302.869 743.37 303.939 745.18L303.849 746.13L302.379 762.06C302.617 764.164 303.187 766.216 304.069 768.14C305.679 771.61 308.809 775.21 314.759 774.82C315.759 774.75 316.919 774.63 318.039 774.48C328.929 773.02 342.339 768.16 342.339 768.16C341.643 767.718 341.004 767.191 340.439 766.59V766.59C339.904 766.072 339.48 765.45 339.192 764.762C338.905 764.075 338.761 763.336 338.769 762.59C338.929 759.69 333.499 745.87 332.149 742.47C331.939 741.98 331.829 741.7 331.829 741.7C331.829 741.7 344.209 728.76 342.149 717.29C342.149 717.29 328.449 709.29 332.959 704.9C337.469 700.51 345.529 687.9 345.529 687.9C345.529 687.9 345.899 640.75 345.529 633.71C345.143 628.824 345.375 623.909 346.219 619.08C346.369 618.35 346.549 617.64 346.739 616.94C352.976 617.871 359.273 618.349 365.579 618.37C367.879 618.37 370.219 618.37 372.579 618.23C372.579 618.897 372.609 619.617 372.669 620.39C373.189 632.07 374.159 652.55 374.949 660.16C376.069 671.07 382.259 700.47 382.259 700.47C382.259 700.47 370.449 708.05 384.319 726.73C384.319 726.73 384.319 733.5 383.399 734.48C382.417 737.684 381.625 740.943 381.029 744.24C380.449 747.76 380.209 751.32 381.149 753.17C383.399 757.59 396.899 757.23 396.899 757.23L397.229 757.17C399.778 756.907 402.353 757.152 404.806 757.892C407.259 758.632 409.541 759.852 411.519 761.48C416.649 765.6 436.119 763.79 446.659 762.48C450.789 761.96 453.549 761.48 453.549 761.48C453.683 761.013 453.73 760.525 453.689 760.04C453.579 757.45 451.549 751.77 437.789 746.7C437.789 746.7 424.849 738 425.029 730.42H424.759H423.259C424.349 730.36 425.049 730.42 425.049 730.42C425.049 730.42 419.979 711.92 422.049 710.42C424.119 708.92 417.919 688.42 417.919 688.42C417.919 688.42 414.369 654.02 414.179 651.61C414.187 649.542 414.5 647.487 415.109 645.51L414.179 626.65C414.179 626.65 413.999 620.38 414.179 618.34C414.149 616.57 414.005 614.803 413.749 613.05C413.659 612.35 413.569 611.62 413.469 610.9C418.319 609.67 421.469 608.53 421.469 608.53L420.909 542.88C425.029 534.88 425.789 517.33 425.769 504.88C425.769 496.88 425.409 490.96 425.409 490.96L431.039 481.77C431.039 481.77 432.339 470.77 430.279 468.36C429.369 467.27 429.779 466.14 430.529 465.21C430.918 464.902 431.329 464.621 431.759 464.37C431.759 464.37 431.699 464.28 431.629 464.15C432.022 463.822 432.44 463.524 432.879 463.26C432.879 463.26 430.879 460.16 432.669 458.85C434.349 459.99 435.849 460.85 436.989 461.55C436.909 462.28 436.829 462.7 436.829 462.7L437.309 461.7C438.409 462.32 439.079 462.7 439.079 462.7C439.079 462.7 447.899 445.13 447.709 442.54C447.519 439.95 453.709 429.04 453.709 429.04C453.709 429.04 454.459 423.31 457.839 420.91C461.219 418.51 460.459 401.12 460.459 401.12C460.459 401.12 461.399 392.06 463.649 388.36C465.899 384.66 461.599 379.67 461.599 379.67ZM292.839 371.96L293.009 376.15C292.009 374.54 291.289 373.38 291.289 373.38L292.839 371.96Z" fill="url(#paint0_linear)"/>
<path d="M439.56 455.11L437.4 464.31C437.4 464.31 420.1 455.48 416.98 444.26C413.86 433.04 422.2 428.78 422.2 428.78L438.32 435.61L439.56 455.11Z" fill="white"/>
<path opacity="0.1" d="M439.56 455.11L437.4 464.31C437.4 464.31 420.1 455.48 416.98 444.26C413.86 433.04 422.2 428.78 422.2 428.78L438.32 435.61L439.56 455.11Z" fill="black"/>
<path d="M342.468 768.22C342.468 768.22 326.468 774.1 315.468 774.84C309.628 775.23 306.558 771.65 304.978 768.2C304.115 766.282 303.558 764.241 303.328 762.15L304.758 746.3L305.518 737.86L328.888 731.79L332.198 741.91L332.508 742.68C333.838 746.06 339.168 759.81 339.008 762.68C339.002 763.415 339.143 764.144 339.425 764.822C339.707 765.501 340.123 766.116 340.648 766.63C341.185 767.235 341.796 767.77 342.468 768.22V768.22Z" fill="white"/>
<path d="M451.758 760.16C451.798 760.641 451.751 761.126 451.618 761.59C451.618 761.59 417.398 767.3 410.398 761.59C408.425 759.922 406.124 758.685 403.644 757.958C401.165 757.232 398.56 757.031 395.998 757.37C395.998 757.37 382.758 757.73 380.548 753.37C379.628 751.54 379.868 747.99 380.438 744.49C381.02 741.211 381.795 737.968 382.758 734.78L383.288 734.36L386.438 731.83L423.318 730.74H423.598C423.418 738.28 436.118 746.93 436.118 746.93C449.608 751.93 451.598 757.58 451.758 760.16Z" fill="white"/>
<path opacity="0.1" d="M451.761 760.16C451.796 760.642 451.745 761.126 451.611 761.59C451.611 761.59 417.401 767.3 410.401 761.59C408.429 759.923 406.13 758.687 403.652 757.96C401.174 757.234 398.571 757.033 396.011 757.37C396.011 757.37 382.761 757.73 380.561 753.37C379.641 751.53 379.871 747.99 380.441 744.49C385.541 745 393.591 746.27 396.751 749.3C401.531 753.91 409.631 758.51 414.601 758.87C418.491 759.12 441.761 759.86 451.761 760.16Z" fill="black"/>
<path opacity="0.1" d="M342.468 768.22C342.468 768.22 326.468 774.1 315.468 774.84C309.628 775.23 306.558 771.65 304.988 768.19C309.058 769.56 314.708 771 317.678 769.68C321.198 768.12 333.678 767.11 340.678 766.68C341.211 767.263 341.812 767.78 342.468 768.22V768.22Z" fill="black"/>
<path d="M366.208 294.37C353.008 289.24 336.028 272.29 340.268 264.37C341.21 262.372 341.77 260.214 341.918 258.01C342.191 255.018 342.231 252.009 342.038 249.01C341.741 244.099 341.15 239.21 340.268 234.37C340.268 234.37 381.478 235.3 379.078 241.37C378.378 243.15 378.268 246.24 378.458 249.7C378.648 253.16 379.148 257.07 379.668 260.38C380.388 264.92 381.108 268.38 381.108 268.38C381.108 268.38 378.588 271.91 377.108 272.1C375.628 272.29 385.148 301.68 366.208 294.37Z" fill="#CF6F80"/>
<path opacity="0.1" d="M332.48 742.68L332.17 743.02C319.85 728.12 304.95 746.69 304.95 746.69L304.73 746.3L305.49 737.86L328.86 731.79L332.17 741.91L332.48 742.68Z" fill="black"/>
<path opacity="0.1" d="M423.609 731.79C423.609 731.79 414.609 731.6 409.809 735.84C405.009 740.08 381.809 736.76 382.809 735.84C383.105 735.384 383.284 734.862 383.329 734.32L386.479 731.79L423.359 730.7C423.499 731.37 423.609 731.79 423.609 731.79Z" fill="black"/>
<path d="M347.809 614.78C347.139 616.437 346.63 618.155 346.289 619.91C345.455 624.716 345.224 629.607 345.599 634.47C345.969 641.47 345.599 688.38 345.599 688.38C345.599 688.38 337.689 700.89 333.279 705.3C328.869 709.71 342.279 717.63 342.279 717.63C344.279 729.03 332.159 741.91 332.159 741.91C319.839 727.01 304.939 745.59 304.939 745.59C304.939 745.59 296.839 731.59 294.819 726.59C292.799 721.59 302.729 718.13 306.219 716.1C309.709 714.07 306.049 702.1 306.049 702.1C306.049 702.1 303.099 691.61 299.599 682.04C296.099 672.47 303.459 624.83 303.459 624.83C303.459 624.83 303.839 616.37 304.749 613.42C305.208 611.292 305.3 609.1 305.019 606.94C304.959 606.21 304.889 605.6 304.839 605.19C304.789 604.78 304.749 604.59 304.749 604.59L304.889 604.35L309.889 595.03C309.889 595.03 350.209 608.91 347.809 614.78Z" fill="#42D0FF"/>
<path d="M423.609 730.69C423.609 730.69 414.609 730.5 409.809 734.69C405.009 738.88 381.809 735.61 382.809 734.69C383.809 733.77 383.729 726.96 383.729 726.96C370.119 708.38 381.729 700.84 381.729 700.84C381.729 700.84 375.649 671.59 374.549 660.74C373.779 653.16 372.829 632.79 372.319 621.16C372.099 616.16 371.969 612.72 371.969 612.72L383.089 610.48L384.519 610.19L411.339 604.81C411.339 604.81 412.079 609.81 412.579 613.9C412.828 615.646 412.968 617.406 412.999 619.17C412.819 621.17 412.999 627.43 412.999 627.43L413.909 646.2C413.314 648.168 413.008 650.213 412.999 652.27C413.179 654.66 416.669 688.88 416.669 688.88C416.669 688.88 422.739 709.3 420.669 710.77C418.599 712.24 423.609 730.69 423.609 730.69Z" fill="#42D0FF"/>
<path opacity="0.1" d="M379.08 241.37C378.38 243.15 378.27 246.24 378.46 249.7C372.94 253.024 366.594 254.724 360.152 254.603C353.709 254.483 347.432 252.548 342.04 249.02C341.743 244.106 341.152 239.214 340.27 234.37C340.27 234.37 381.48 235.28 379.08 241.37Z" fill="black"/>
<path d="M395.011 219.27C395.019 222.873 394.452 226.455 393.331 229.88C390.826 237.553 385.688 244.094 378.827 248.346C371.965 252.599 363.821 254.288 355.834 253.117C347.848 251.945 340.532 247.988 335.181 241.944C329.829 235.901 326.787 228.16 326.591 220.09C326.591 219.81 326.591 219.55 326.591 219.27C326.513 214.727 327.341 210.215 329.026 205.996C330.71 201.777 333.218 197.935 336.403 194.695C339.588 191.456 343.386 188.882 347.576 187.126C351.765 185.369 356.263 184.465 360.806 184.465C365.349 184.465 369.847 185.369 374.036 187.126C378.226 188.882 382.024 191.456 385.209 194.695C388.394 197.935 390.902 201.777 392.586 205.996C394.271 210.215 395.099 214.727 395.021 219.27H395.011Z" fill="#CF6F80"/>
<path opacity="0.1" d="M366.208 294.37C353.008 289.24 336.028 272.29 340.268 264.37C341.21 262.371 341.77 260.214 341.918 258.01L359.988 272.86L371.168 282.03L379.668 260.39C380.388 264.93 381.108 268.39 381.108 268.39C381.108 268.39 378.588 271.92 377.108 272.11C375.628 272.3 385.148 301.68 366.208 294.37Z" fill="black"/>
<path d="M412.941 360L397.851 613.5L378.171 614.79L327.211 467.8L335.571 293.29L337.331 256.42L359.991 275.03L371.181 284.2L379.931 261.93L396.201 276.11L412.941 360Z" fill="#42D0FF"/>
<path opacity="0.1" d="M347.812 614.78C347.141 616.438 346.632 618.155 346.292 619.91C331.972 617.699 318.064 613.354 305.032 607.02L304.762 606.88L304.852 605.27L304.902 604.43L309.902 595.11C309.902 595.11 350.212 608.91 347.812 614.78Z" fill="black"/>
<path opacity="0.1" d="M383.32 619.95C379.659 620.573 375.967 620.993 372.26 621.21C372.04 616.21 371.91 612.77 371.91 612.77L383.03 610.53L383.32 619.95Z" fill="black"/>
<path opacity="0.1" d="M412.521 613.95C405.411 615.8 394.431 617.88 384.601 616.58L384.461 610.24L411.281 604.86C411.281 604.86 412.021 609.81 412.521 613.95Z" fill="black"/>
<path opacity="0.1" d="M384.422 617.74C343.422 624.74 305.872 604.67 305.872 604.67L306.232 597.87C306.232 597.87 307.162 520.78 304.582 514.87C302.002 508.96 299.992 478.99 301.452 474.39C302.912 469.79 296.122 400.81 296.122 400.81L295.022 372.81L254.762 356.5L272.762 318.98C275.193 313.72 277.284 308.309 279.022 302.78C282.152 293.04 296.682 283.47 296.682 283.47C296.682 283.47 311.582 273.91 317.472 274.27C323.362 274.63 331.082 265.81 331.082 265.81C336.782 251.28 341.942 257.86 341.942 257.86C341.942 258.55 341.942 257.86 341.662 260.01C339.662 275.96 374.002 326.36 374.492 327.25L377.762 406.91L381.072 507.72L384.422 617.74Z" fill="black"/>
<path d="M383.319 617.74C342.319 624.74 304.759 604.67 304.759 604.67L305.129 597.87C305.129 597.87 306.059 520.78 303.469 514.87C300.879 508.96 298.879 478.99 300.349 474.39C301.819 469.79 295.019 400.81 295.019 400.81L293.909 372.81L253.629 356.44L271.629 318.92C274.055 313.657 276.146 308.246 277.889 302.72C281.009 292.98 295.549 283.41 295.549 283.41C295.549 283.41 310.449 273.85 316.329 274.21C322.209 274.57 329.939 265.75 329.939 265.75C335.649 251.22 341.939 257.8 341.939 257.8C341.939 258.49 341.339 258.8 341.659 259.95C346.059 275.42 372.899 326.3 373.389 327.19L376.699 406.85L380.009 507.66L383.319 617.74Z" fill="white"/>
<path opacity="0.1" d="M372.27 329.46C367.86 327.62 344.5 300.95 344.5 300.95V294.88C343.65 292.88 338.6 294.1 334.5 295.5L336.26 258.63L338.26 260.29C342.64 275.75 371.76 328.57 372.27 329.46Z" fill="black"/>
<path d="M373.382 327.25C368.962 325.41 345.602 298.74 345.602 298.74V292.67C344.752 290.67 339.702 291.89 335.602 293.29L337.372 256.42L339.372 258.08C343.762 273.54 372.892 326.37 373.382 327.25Z" fill="white"/>
<path opacity="0.1" d="M305.871 460.26C306.421 460.26 334.381 457.32 334.381 457.32C334.381 457.32 351.311 490.61 350.201 498.71C349.091 506.81 347.081 513.98 340.271 512.71C333.461 511.44 303.621 513.71 303.621 513.71L305.871 460.26Z" fill="black"/>
<path d="M304.762 458.05C305.312 458.05 333.272 455.11 333.272 455.11C333.272 455.11 350.192 488.41 349.092 496.5C347.992 504.59 345.962 511.77 339.162 510.5C332.362 509.23 302.512 511.5 302.512 511.5L304.762 458.05Z" fill="white"/>
<path d="M325.829 442.42C325.829 442.42 351.489 456.21 352.039 460.42C352.589 464.63 338.979 458.58 336.039 457.85C334.104 457.384 332.134 457.076 330.149 456.93L310.539 457.46L325.829 442.42Z" fill="#CF6F80"/>
<path opacity="0.1" d="M365.11 331.18C366.601 331.18 367.81 329.971 367.81 328.48C367.81 326.989 366.601 325.78 365.11 325.78C363.619 325.78 362.41 326.989 362.41 328.48C362.41 329.971 363.619 331.18 365.11 331.18Z" fill="black"/>
<path d="M365.11 330.08C366.601 330.08 367.81 328.871 367.81 327.38C367.81 325.889 366.601 324.68 365.11 324.68C363.619 324.68 362.41 325.889 362.41 327.38C362.41 328.871 363.619 330.08 365.11 330.08Z" fill="#3F3D56"/>
<path opacity="0.1" d="M370.079 448.06C371.57 448.06 372.779 446.851 372.779 445.36C372.779 443.869 371.57 442.66 370.079 442.66C368.588 442.66 367.379 443.869 367.379 445.36C367.379 446.851 368.588 448.06 370.079 448.06Z" fill="black"/>
<path d="M370.079 446.95C371.57 446.95 372.779 445.741 372.779 444.25C372.779 442.759 371.57 441.55 370.079 441.55C368.588 441.55 367.379 442.759 367.379 444.25C367.379 445.741 368.588 446.95 370.079 446.95Z" fill="#3F3D56"/>
<path opacity="0.1" d="M367.802 389.62C369.293 389.62 370.502 388.411 370.502 386.92C370.502 385.429 369.293 384.22 367.802 384.22C366.31 384.22 365.102 385.429 365.102 386.92C365.102 388.411 366.31 389.62 367.802 389.62Z" fill="black"/>
<path d="M367.802 388.52C369.293 388.52 370.502 387.311 370.502 385.82C370.502 384.329 369.293 383.12 367.802 383.12C366.31 383.12 365.102 384.329 365.102 385.82C365.102 387.311 366.31 388.52 367.802 388.52Z" fill="#3F3D56"/>
<path d="M430.04 456.37C430.04 456.37 431.88 459.13 430.04 460.42C428.2 461.71 430.22 464.83 430.22 464.83C430.22 464.83 425.63 467.52 427.65 469.94C429.67 472.36 428.39 483.29 428.39 483.29L422.87 492.43C422.87 492.43 423.2 498.32 423.22 506.28C423.22 518.7 422.49 536.16 418.45 544.12L419.01 609.43C419.01 609.43 399.68 616.49 383.5 614.34L381.1 509.54C381.1 509.54 384.6 450.11 385.89 438.71C386.645 432.792 386.953 426.825 386.81 420.86C386.81 420.86 386.26 403.02 384.41 394.74C384.41 394.74 382.41 358.87 382.21 348.94C382.12 344.19 382.37 330.33 382.65 317.15C382.96 302.74 383.31 289.15 383.31 289.15L379.66 260.27C379.66 260.27 383.31 259.9 384.41 261.37C384.903 261.83 385.439 262.242 386.01 262.6V262.6C392.31 266.86 414.57 279.96 414.57 279.96C414.57 279.96 426.89 284.86 429.84 291.88C432.79 298.9 434.84 303.88 436.27 305.88C437.7 307.88 438.48 317.28 438.48 317.28C438.48 317.28 442.72 334.58 446.03 337.51C449.34 340.44 451.76 359.08 451.76 359.08L422.51 382.08C422.51 382.08 419.94 420.34 419.39 421.82C418.84 423.3 430.04 456.37 430.04 456.37Z" fill="white"/>
<path d="M431.15 456.37C431.15 456.37 432.98 459.13 431.15 460.42C429.32 461.71 431.32 464.83 431.32 464.83C431.32 464.83 426.76 467.55 428.76 469.97C430.76 472.39 429.5 483.32 429.5 483.32L423.98 492.46C423.98 492.46 424.31 498.35 424.34 506.31C424.34 518.73 423.61 536.19 419.57 544.15L420.12 609.46C420.12 609.46 400.76 616.52 384.6 614.37L382.21 509.57C382.21 509.57 385.71 450.14 387 438.74C387.756 432.822 388.06 426.855 387.91 420.89C387.91 420.89 387.36 403.05 385.52 394.77C385.52 394.77 383.52 358.9 383.31 348.97C383.22 344.22 383.48 330.36 383.75 317.18C384.06 302.77 384.41 289.18 384.41 289.18L379.59 259.91C379.59 259.91 384.41 259.91 385.52 261.4C386.008 261.866 386.544 262.278 387.12 262.63C393.42 266.89 415.69 279.99 415.69 279.99C415.69 279.99 428 284.89 430.95 291.91C433.9 298.93 435.95 303.91 437.39 305.91C438.83 307.91 439.59 317.31 439.59 317.31C439.59 317.31 443.83 334.61 447.14 337.54C450.45 340.47 452.84 359.07 452.84 359.07L423.59 382.07C423.59 382.07 421.02 420.33 420.46 421.81C419.9 423.29 431.15 456.37 431.15 456.37Z" fill="white"/>
<path opacity="0.1" d="M396.119 297.67L398.759 305.37L384.859 319.37C385.169 304.97 385.519 291.37 385.519 291.37L380.699 262.1C380.699 262.1 385.519 262.1 386.629 263.59C387.116 264.054 387.653 264.463 388.229 264.81L400.049 298.91L396.119 297.67Z" fill="black"/>
<path d="M395.01 295.46L397.66 303.16L383.76 317.16C384.07 302.75 384.42 289.16 384.42 289.16L379.59 259.89C379.59 259.89 384.42 259.89 385.52 261.38C386.01 261.843 386.546 262.255 387.12 262.61L398.95 296.7L395.01 295.46Z" fill="white"/>
<path opacity="0.1" d="M395.011 219.27C395.019 222.873 394.452 226.455 393.331 229.88C393.142 229.909 392.949 229.901 392.764 229.854C392.578 229.808 392.404 229.725 392.251 229.61C391.991 220.61 387.561 212.16 382.111 204.97C380.581 202.799 378.726 200.876 376.611 199.27C374.473 197.664 371.813 196.912 369.151 197.16C366.151 197.57 363.501 199.61 360.471 199.87C356.471 200.2 352.891 197.43 348.921 197.29C347.307 197.305 345.715 197.664 344.251 198.344C342.787 199.023 341.485 200.007 340.431 201.23C338.345 203.697 336.796 206.571 335.881 209.67C334.309 214.368 333.452 219.277 333.341 224.23C333.291 227.03 333.021 230.54 330.421 231.56C330.617 229.501 330.383 227.423 329.734 225.459C329.085 223.495 328.035 221.687 326.651 220.15L326.591 220.09C326.591 219.81 326.591 219.55 326.591 219.27C326.513 214.727 327.341 210.215 329.026 205.996C330.71 201.777 333.218 197.935 336.403 194.695C339.588 191.456 343.386 188.882 347.576 187.126C351.765 185.369 356.263 184.465 360.806 184.465C365.349 184.465 369.847 185.369 374.036 187.126C378.226 188.882 382.024 191.456 385.209 194.695C388.394 197.935 390.902 201.777 392.586 205.996C394.271 210.215 395.099 214.727 395.021 219.27H395.011Z" fill="black"/>
<path d="M374.968 164.94C369.772 162.496 363.861 162.033 358.348 163.64C355.578 164.46 352.968 165.79 350.158 166.46C344.158 167.91 337.158 166.34 332.008 169.85C329.148 171.85 327.428 175.01 325.828 178.08L321.828 185.7C319.648 189.87 317.448 194.11 316.538 198.7C315.628 203.29 316.178 208.43 319.088 212.12C321.208 214.81 324.338 216.5 326.638 219.03C328.016 220.569 329.061 222.376 329.708 224.338C330.355 226.299 330.59 228.373 330.398 230.43C333.008 229.43 333.258 225.91 333.318 223.11C333.43 218.157 334.286 213.249 335.858 208.55C336.771 205.451 338.321 202.576 340.408 200.11C341.463 198.888 342.765 197.905 344.229 197.226C345.693 196.547 347.284 196.187 348.898 196.17C352.898 196.31 356.488 199.07 360.448 198.74C363.448 198.49 366.108 196.44 369.128 196.04C371.791 195.788 374.452 196.541 376.588 198.15C378.702 199.754 380.554 201.677 382.078 203.85C387.538 211.04 391.968 219.47 392.228 228.49C393.358 229.32 394.988 228.24 395.548 226.96C396.108 225.68 396.128 224.18 396.838 222.96C397.658 221.55 399.228 220.8 400.458 219.74C403.578 217.05 404.358 212.52 404.238 208.41C404.118 204.3 403.318 200.13 404.098 196.09C404.568 193.61 405.628 191.29 406.208 188.84C406.788 186.39 406.858 183.64 405.488 181.53C403.488 178.43 399.278 177.82 395.608 177.53C391.438 177.17 387.708 177.63 385.048 174.12C383.8 172.288 382.394 170.569 380.848 168.98C380.318 168.46 374.968 165.16 374.968 164.94Z" fill="#512E4E"/>
<path opacity="0.1" d="M266.28 375.82L255.83 356.5L252.52 386.31C252.52 386.31 254.36 399.55 253.99 401.58C253.62 403.61 261.53 421.81 261.53 421.81C261.53 421.81 287.66 468.35 298.33 470.75L334.38 444.99L324.82 432.85C324.82 432.85 321.51 431.56 320.68 432.85C320.68 432.85 302.93 402.31 301.09 400.1C299.25 397.89 299.61 393.48 299.61 393.48C299.61 393.48 296.85 390.54 297.77 387.78C298.69 385.02 292.44 375.45 292.44 375.45L298.14 370.12L266.28 375.82Z" fill="black"/>
<path d="M256.379 354.3L253.619 356.5L250.309 386.31C250.309 386.31 252.149 399.55 251.779 401.58C251.409 403.61 259.329 421.81 259.329 421.81C259.329 421.81 285.449 468.35 296.119 470.75L332.179 444.99L322.609 432.85C322.609 432.85 319.299 431.56 318.469 432.85C318.469 432.85 300.719 402.31 298.879 400.1C297.039 397.89 297.409 393.48 297.409 393.48C297.409 393.48 294.649 390.54 295.569 387.78C296.489 385.02 290.229 375.45 290.229 375.45L295.929 370.12L256.379 354.3Z" fill="white"/>
<path opacity="0.1" d="M427.652 471.08C429.652 473.51 428.392 484.42 428.392 484.42L422.872 493.56C422.872 493.56 423.202 499.46 423.222 507.41L413.942 510.31C413.103 510.571 412.214 510.629 411.348 510.477C410.483 510.326 409.666 509.97 408.967 509.438C408.267 508.907 407.704 508.216 407.326 507.423C406.948 506.63 406.765 505.758 406.792 504.88L408.392 453.27L430.042 461.55C428.202 462.83 430.222 465.97 430.222 465.97C430.222 465.97 425.632 468.65 427.652 471.08Z" fill="black"/>
<path d="M428.759 469.97C430.759 472.4 429.499 483.32 429.499 483.32L423.979 492.46C423.979 492.46 424.309 498.35 424.339 506.31L414.889 509.26C414.068 509.515 413.197 509.571 412.35 509.421C411.503 509.272 410.704 508.923 410.019 508.402C409.334 507.882 408.784 507.206 408.413 506.429C408.043 505.653 407.863 504.8 407.889 503.94L409.499 452.17L431.159 460.45C429.309 461.73 431.329 464.86 431.329 464.86C431.329 464.86 426.759 467.55 428.759 469.97Z" fill="white"/>
<path d="M435.929 445.37C435.929 445.37 434.459 454.76 430.779 455.31C427.099 455.86 425.449 470.5 421.779 469.98C418.109 469.46 420.539 456.37 420.669 453.83C420.799 451.29 416.669 440.77 419.759 438.38C422.849 435.99 432.629 438.38 432.629 438.38L435.929 445.37Z" fill="#CF6F80"/>
<path opacity="0.1" d="M443.762 373.06L450.702 359.06C450.702 359.06 453.462 369.73 453.462 375.43C453.462 381.13 457.322 381.69 457.322 381.69C457.322 381.69 461.552 386.69 459.322 390.33C457.092 393.97 456.192 403.03 456.192 403.03C456.192 403.03 456.922 420.32 453.612 422.71C450.302 425.1 449.612 430.81 449.612 430.81C449.612 430.81 443.532 441.66 443.722 444.24C443.912 446.82 435.262 464.29 435.262 464.29C435.262 464.29 439.492 442.58 414.842 433.2C414.842 433.2 414.652 425.83 416.492 423.81C418.332 421.79 421.202 420.87 419.402 410.66C417.602 400.45 418.882 388.25 418.882 385.8C418.882 383.35 424.402 368.07 424.402 368.07L443.762 373.06Z" fill="black"/>
<path d="M446.761 357.06L452.821 359.06C452.821 359.06 455.591 369.73 455.591 375.43C455.591 381.13 459.451 381.69 459.451 381.69C459.451 381.69 463.681 386.69 461.451 390.33C459.221 393.97 458.331 403.03 458.331 403.03C458.331 403.03 459.061 420.32 455.751 422.71C452.441 425.1 451.701 430.81 451.701 430.81C451.701 430.81 445.631 441.66 445.821 444.24C446.011 446.82 437.351 464.29 437.351 464.29C437.351 464.29 441.591 442.58 416.931 433.2C416.931 433.2 416.751 425.83 418.591 423.81C420.431 421.79 423.301 420.87 421.501 410.66C419.701 400.45 420.981 388.25 420.981 385.8C420.981 383.35 426.501 368.07 426.501 368.07L446.761 357.06Z" fill="white"/>
<path opacity="0.1" d="M312.91 719.93C312.91 719.93 322.57 713.86 328.91 718.27C335.25 722.68 312.91 719.93 312.91 719.93Z" fill="black"/>
<path opacity="0.1" d="M387.969 701.159C387.969 701.159 396.519 700.059 403.699 707.789C410.879 715.519 387.969 701.159 387.969 701.159Z" fill="black"/>
<g opacity="0.1">
<path opacity="0.1" d="M400.481 217.55C399.251 218.61 397.671 219.37 396.851 220.78C396.151 221.99 396.131 223.48 395.571 224.78C395.011 226.08 393.381 227.14 392.251 226.32C391.991 217.32 387.551 208.87 382.101 201.67C380.578 199.497 378.726 197.574 376.611 195.97C374.471 194.361 371.807 193.609 369.141 193.86C366.141 194.27 363.501 196.31 360.471 196.56C356.471 196.9 352.881 194.13 348.911 193.99C347.298 194.006 345.707 194.367 344.244 195.048C342.782 195.729 341.482 196.715 340.431 197.94C338.344 200.402 336.794 203.274 335.881 206.37C334.31 211.069 333.454 215.977 333.341 220.93C333.281 223.72 333.021 227.2 330.441 228.24C330.501 228.979 330.501 229.721 330.441 230.46C333.041 229.46 333.301 225.94 333.361 223.14C333.473 218.187 334.329 213.278 335.901 208.58C336.814 205.481 338.364 202.606 340.451 200.14C341.504 198.919 342.805 197.936 344.267 197.256C345.729 196.577 347.319 196.217 348.931 196.2C352.931 196.34 356.531 199.1 360.491 198.77C363.491 198.52 366.151 196.47 369.161 196.07C371.827 195.818 374.491 196.571 376.631 198.18C378.746 199.784 380.598 201.707 382.121 203.88C387.571 211.07 392.011 219.5 392.271 228.52C393.401 229.35 395.031 228.27 395.591 226.99C396.151 225.71 396.171 224.21 396.871 222.99C397.691 221.58 399.271 220.83 400.501 219.77C403.621 217.08 404.401 212.55 404.281 208.44C404.281 208.31 404.281 208.18 404.281 208.06C404.091 211.62 403.141 215.25 400.481 217.55Z" fill="black"/>
<path opacity="0.1" d="M326.66 216.84C324.36 214.31 321.22 212.62 319.11 209.94C317.333 207.568 316.318 204.712 316.2 201.75C315.885 205.451 316.919 209.141 319.11 212.14C321.22 214.83 324.36 216.52 326.66 219.05C328.868 221.525 330.194 224.662 330.43 227.97C330.583 225.957 330.328 223.933 329.68 222.02C329.032 220.108 328.005 218.346 326.66 216.84V216.84Z" fill="black"/>
<path opacity="0.1" d="M406.229 186.65C405.639 189.1 404.589 191.43 404.109 193.9C403.824 195.55 403.72 197.227 403.799 198.9C403.832 197.947 403.936 196.998 404.109 196.06C404.589 193.58 405.639 191.26 406.229 188.81C406.573 187.459 406.684 186.059 406.559 184.67C406.496 185.337 406.386 185.999 406.229 186.65V186.65Z" fill="black"/>
</g>
<path d="M972.51 743.53L971.32 757.7L975.31 756.9L974.71 741.53L972.51 743.53Z" fill="#1D2366"/>
<path d="M881.481 676.25C876.671 689.95 878.031 708.44 879.111 717.42C879.511 720.74 879.881 722.76 879.881 722.76C879.881 722.76 872.691 739.14 872.091 739.76C871.491 740.38 850.931 752.93 850.931 752.93L836.561 761.32C836.561 761.32 821.981 754.93 828.971 752.73C830.399 752.157 831.685 751.28 832.741 750.16C839.741 743.51 848.531 726.98 848.531 726.98C848.531 726.98 849.131 718.59 851.331 714.6C853.531 710.61 852.731 668.68 852.731 668.68L852.901 600.33V591.42L880.251 591.62C880.423 594.645 880.818 597.653 881.431 600.62C882.413 605.741 883.685 610.803 885.241 615.78C890.061 631.37 888.061 657.48 881.481 676.25Z" fill="#FFB0B1"/>
<path opacity="0.1" d="M879.881 722.76C879.881 722.76 872.691 739.14 872.091 739.76C871.491 740.38 850.931 752.93 850.931 752.93L836.561 761.32C836.561 761.32 821.981 754.93 828.971 752.73C830.399 752.157 831.685 751.28 832.741 750.16L833.361 754.53L838.151 754.33L879.151 717.44C879.511 720.74 879.881 722.76 879.881 722.76Z" fill="black"/>
<path d="M879.38 718.37L838.15 755.51L833.36 755.71L832.36 748.71C832.36 748.71 823.98 759.49 805.36 758.89C805.36 758.89 794.18 766.28 810.75 766.68C827.32 767.08 848.48 766.08 848.48 766.08C848.48 766.08 863.26 743.08 875.63 746.08V763.45H879.43V745.92C881.197 744.731 882.705 743.196 883.863 741.409C885.021 739.622 885.806 737.619 886.17 735.52C886.499 733.358 886.266 731.149 885.494 729.103C884.722 727.057 883.436 725.245 881.76 723.84C881.012 723.139 880.415 722.291 880.005 721.351C879.596 720.41 879.383 719.396 879.38 718.37V718.37Z" fill="#1D2366"/>
<path d="M976.311 697.61C973.651 707.11 975.101 712.46 976.921 715.33V715.39C979.255 718.933 980.878 722.897 981.701 727.06L981.861 727.96L963.101 755.31L952.921 759.31C952.921 759.31 936.551 753.72 939.541 752.12C940.291 751.73 941.461 749.65 942.801 746.78C946.801 738.13 952.321 722.17 952.321 722.17V722.04C952.901 715.45 953.821 708.88 954.841 702.34C956.671 690.57 953.311 661.68 953.311 661.68C953.311 661.68 952.111 626.55 949.511 618.56C948.337 614.497 947.557 610.331 947.181 606.12C946.641 601.12 946.521 597 946.521 597C946.521 597 957.301 582 977.061 598.2C978.641 599.492 980.031 601 981.191 602.68C994.841 622.1 983.851 664.88 983.851 664.88C983.851 664.88 981.101 680.44 976.311 697.61Z" fill="#FFB0B1"/>
<path opacity="0.1" d="M981.892 727.96L963.132 755.31L952.952 759.31C952.952 759.31 936.582 753.72 939.572 752.12C940.322 751.73 941.492 749.65 942.832 746.78C949.762 746.72 953.352 753.32 953.352 753.32L962.132 751.92C962.132 751.92 973.712 729.16 976.312 727.77C978.912 726.38 976.712 717.38 976.712 717.38V715.09C976.782 715.17 976.842 715.26 976.922 715.34V715.4C979.256 718.943 980.88 722.907 981.702 727.07L981.892 727.96Z" fill="black"/>
<path d="M953.951 753.91C953.951 753.91 948.951 744.73 939.371 748.12C939.371 748.12 933.981 759.12 928.591 760.9C923.201 762.68 925.001 768.68 937.181 766.49C949.361 764.3 967.721 762.49 967.721 762.49L968.521 751.3L980.901 735.53C980.901 735.53 988.281 728.84 977.301 715.67V717.96C977.301 717.96 979.501 726.96 976.901 728.35C974.301 729.74 962.761 752.51 962.761 752.51L953.951 753.91Z" fill="#1D2366"/>
<path opacity="0.1" d="M880.278 591.6C880.451 594.625 880.845 597.633 881.458 600.6C870.198 598.95 859.748 599.77 852.898 600.31V591.4L880.278 591.6Z" fill="black"/>
<path opacity="0.1" d="M982.299 605.17C982.299 605.17 966.299 605.95 947.219 606.11C946.679 601.11 946.559 596.99 946.559 596.99C946.559 596.99 957.339 581.99 977.099 598.19C978.679 599.482 980.069 600.99 981.229 602.67C981.538 603.522 981.896 604.357 982.299 605.17V605.17Z" fill="black"/>
<path d="M982.302 603.37C982.302 603.37 912.222 606.76 890.862 600.77C869.502 594.78 848.332 599.97 845.142 598.58C841.952 597.19 844.542 575.42 847.342 570.03C850.142 564.64 865.502 510.13 865.502 510.13L880.282 433.07L895.852 428.78L896.952 428.47L924.082 420.99L943.962 415.5C943.962 415.5 983.492 569.83 980.102 581.21C978.871 585.568 978.672 590.152 979.522 594.6C980.04 597.637 980.975 600.589 982.302 603.37V603.37Z" fill="#1D2366"/>
<path d="M828.761 380.37C828.761 380.37 814.761 395.37 825.361 403.73C835.961 412.09 842.931 404.53 842.931 404.53L828.761 380.37Z" fill="#C7DAF5"/>
<path opacity="0.1" d="M828.761 380.37C828.761 380.37 814.761 395.37 825.361 403.73C835.961 412.09 842.931 404.53 842.931 404.53L828.761 380.37Z" fill="black"/>
<path d="M941.872 281.75C941.872 281.75 940.232 283.31 937.762 285.61C934.242 288.9 929.032 293.71 924.412 297.74C918.012 303.31 912.732 307.4 914.622 303.91C916.512 300.42 916.152 294.34 915.212 288.65C915.142 288.27 915.082 287.89 915.012 287.52C914.234 283.341 913.202 279.214 911.922 275.16C911.922 275.16 922.262 261.8 927.982 256.53C930.112 254.53 931.602 253.71 931.692 255.1C931.792 256.97 933.192 261.1 934.932 265.48C934.982 265.62 935.032 265.75 935.092 265.89C936.252 268.89 937.562 271.97 938.712 274.63C940.472 278.71 941.872 281.75 941.872 281.75Z" fill="#FFB0B1"/>
<path opacity="0.1" d="M935.092 265.89C934.12 271.116 931.763 275.986 928.266 279.99C924.768 283.993 920.26 286.984 915.212 288.65C914.417 284.085 913.318 279.578 911.922 275.16C911.922 275.16 931.392 250.01 931.692 255.1C931.762 257.03 933.282 261.31 935.092 265.89Z" fill="black"/>
<path opacity="0.1" d="M913.268 295.37L915.788 291.82C915.788 291.82 917.458 302 923.598 297.51C929.738 293.02 930.038 331.3 930.038 331.3L923.448 429.83L875.828 426.98L877.178 379.37L882.568 355.37L895.898 320.48L903.828 308.95L913.268 295.37Z" fill="black"/>
<path d="M930.039 331.91L924.039 421L923.409 430.44L896.859 428.85L895.859 428.79L875.859 427.59L877.209 379.97L882.599 355.97L895.929 321.08L903.859 309.55L913.299 295.92L915.819 292.38C915.819 292.38 917.489 302.56 923.629 298.07L923.759 297.98C929.759 294.18 930.039 331.91 930.039 331.91Z" fill="#1D2366"/>
<path d="M883.269 347.63C883.269 347.63 880.879 352.63 876.079 351.82C871.279 351.01 871.289 369.82 871.289 369.82C871.289 369.82 868.099 372.82 865.899 370.22C863.699 367.62 857.899 376.41 857.899 376.41L821.559 378.01C821.559 378.01 837.729 385.4 834.559 407.76C834.559 407.76 889.459 404.36 891.259 399.17C893.059 393.98 883.269 347.63 883.269 347.63Z" fill="white"/>
<path opacity="0.03" d="M883.269 347.63C883.269 347.63 880.879 352.63 876.079 351.82C871.279 351.01 871.289 369.82 871.289 369.82C871.289 369.82 868.099 372.82 865.899 370.22C863.699 367.62 857.899 376.41 857.899 376.41L821.559 378.01C821.559 378.01 837.729 385.4 834.559 407.76C834.559 407.76 889.459 404.36 891.259 399.17C893.059 393.98 883.269 347.63 883.269 347.63Z" fill="black"/>
<path d="M777.66 389.76L787.24 397.94L866.1 414.51L856.32 404.53L777.66 389.76Z" fill="white"/>
<path d="M913.418 298.52C912.108 300.52 908.358 310.76 905.228 319.7C902.618 327.15 900.438 333.7 900.438 333.7C900.438 333.7 895.348 366.84 892.748 372.83C890.148 378.82 891.558 402.18 891.558 402.18L881.868 459.87C881.868 459.87 877.478 489.62 870.698 507.39C864.008 524.88 856.558 533.08 856.328 533.34C859.328 529.28 875.678 449.34 875.678 449.34L881.078 348.52C881.078 348.52 881.868 338.94 882.668 330.75C883.468 322.56 899.668 311.38 899.668 311.38L915.288 289.17C916.858 291.27 915.808 294.93 913.418 298.52Z" fill="white"/>
<path d="M872.689 428.09C872.689 428.09 849.689 427.09 838.549 413.71C827.409 400.33 864.299 408.37 864.299 408.37L873.889 410.57L872.689 428.09Z" fill="#FFB0B1"/>
<path opacity="0.1" d="M980.102 581.22C978.87 585.577 978.672 590.162 979.522 594.61C954.432 596.39 927.592 589.61 927.592 589.61C922.592 594.21 909.422 600.99 909.422 600.99L902.242 511.99C897.652 499.99 895.852 437.12 895.852 437.12C895.852 437.12 896.262 433.83 896.852 428.9C896.852 428.78 896.852 428.65 896.902 428.53C898.692 414.76 902.242 388.91 903.982 385.42C906.382 380.62 896.602 367.85 896.602 367.85L901.052 329.9L901.592 325.32C910.972 321.13 918.162 307.75 918.162 307.75L923.682 298.08C929.682 294.23 929.992 331.96 929.992 331.96L923.992 421.05L943.872 415.56C943.872 415.56 983.492 569.84 980.102 581.22Z" fill="black"/>
<path d="M1005.85 587.37C978.501 600.95 928.791 588.37 928.791 588.37C923.791 592.97 910.621 599.75 910.621 599.75L903.431 510.75C898.851 498.75 897.051 435.88 897.051 435.88C897.051 435.88 902.831 388.97 905.231 384.18C905.931 382.78 905.591 380.7 904.761 378.46C900.68 367.798 899.179 356.322 900.381 344.97L902.301 328.66L902.831 324.09C912.221 319.89 919.411 306.51 919.411 306.51L924.411 297.75L933.611 281.61L937.971 273.97L938.711 274.64L944.361 279.76C944.361 279.76 946.761 281.76 950.361 284.76C958.191 291.36 971.721 302.98 978.701 310.09C984.841 316.35 986.781 340.7 987.341 359.03C987.711 371.1 987.491 380.56 987.491 380.56C981.301 390.75 997.491 472.56 997.491 472.56C1001.26 488.37 1005.85 587.37 1005.85 587.37Z" fill="white"/>
<path opacity="0.03" d="M953.349 306.31C953.349 306.31 934.579 342.04 936.759 355.62C938.939 369.2 945.139 384.57 942.149 388.16C941.121 389.52 939.793 390.624 938.268 391.386C936.744 392.147 935.063 392.546 933.359 392.55C930.359 392.75 922.359 398.34 922.359 398.94C922.359 399.54 914.969 399.54 908.359 402.34C901.749 405.14 891.989 406.73 891.989 406.73C891.989 406.73 872.989 406.13 871.219 407.93C869.449 409.73 867.629 420.5 871.419 429.09C875.209 437.68 879.419 444.09 882.599 445.26C885.779 446.43 905.959 439.67 922.329 438.07C938.699 436.47 956.469 423.5 956.469 423.5C956.469 423.5 976.039 416.5 979.469 404.73C982.899 392.96 975.279 328.27 975.279 328.27C975.279 328.27 969.519 298.12 953.349 306.31Z" fill="black"/>
<path opacity="0.03" d="M950.949 303.31C950.949 303.31 932.179 339.05 934.379 352.62C936.579 366.19 942.759 381.57 939.759 385.17C938.735 386.532 937.409 387.637 935.885 388.399C934.362 389.161 932.682 389.558 930.979 389.56C927.979 389.76 919.979 395.35 919.979 395.95C919.979 396.55 912.589 396.55 905.979 399.34C899.369 402.13 889.609 403.73 889.609 403.73C889.609 403.73 870.609 403.13 868.849 404.93C867.089 406.73 865.249 417.51 869.049 426.09C872.849 434.67 877.049 441.09 880.229 442.26C883.409 443.43 903.589 436.67 919.959 435.08C936.329 433.49 954.099 420.5 954.099 420.5C954.099 420.5 973.659 413.5 977.049 401.74C980.439 389.98 972.859 325.27 972.859 325.27C972.859 325.27 967.119 295.13 950.949 303.31Z" fill="black"/>
<path d="M952.758 304.51C952.758 304.51 933.988 340.25 936.188 353.82C938.388 367.39 944.568 382.77 941.578 386.36C940.555 387.725 939.228 388.833 937.702 389.596C936.177 390.36 934.494 390.758 932.788 390.76C929.788 390.96 921.788 396.55 921.788 397.14C921.788 397.73 914.408 397.74 907.788 400.54C901.168 403.34 891.418 404.93 891.418 404.93C891.418 404.93 872.418 404.33 870.648 406.13C868.878 407.93 867.058 418.71 870.848 427.29C874.638 435.87 878.848 442.29 882.028 443.46C885.208 444.63 905.388 437.87 921.758 436.27C938.128 434.67 955.898 421.7 955.898 421.7C955.898 421.7 975.468 414.7 978.898 402.93C982.328 391.16 974.758 326.47 974.758 326.47C974.758 326.47 968.918 296.37 952.758 304.51Z" fill="white"/>
<path opacity="0.1" d="M952.352 400.37C952.352 400.37 937.352 397.37 942.572 402.37C947.792 407.37 947.762 411.75 954.152 411.55C960.542 411.35 952.352 400.37 952.352 400.37Z" fill="black"/>
<path opacity="0.1" d="M977.701 507.95C977.701 507.95 970.921 512.54 983.891 523.12C996.861 533.7 977.701 507.95 977.701 507.95Z" fill="black"/>
<path opacity="0.1" d="M964.76 545.68C964.76 546.28 962.36 567.68 971.34 573.03C980.32 578.38 964.76 545.68 964.76 545.68Z" fill="black"/>
<path d="M822.18 377.96C814.94 378.21 799.3 380.42 807.41 395.55C814.58 408.94 826.63 399.99 833.41 393.2C831.757 386.869 827.737 381.415 822.18 377.96V377.96Z" fill="#FFB0B1"/>
<path d="M833.5 393.08L833.8 392.77L833.5 393.08Z" fill="#FFB0B1"/>
<path opacity="0.1" d="M950.361 285.37C942.681 290.62 936.241 295.05 934.981 295.97C931.541 298.52 924.981 313.49 920.751 321.13C917.381 327.28 906.431 328.86 902.301 329.25L902.831 324.68C912.221 320.48 919.411 307.1 919.411 307.1L937.971 274.56L944.361 280.37C944.361 280.37 946.761 282.37 950.361 285.37Z" fill="black"/>
<path d="M950.361 284.77C942.681 290.02 936.241 294.45 934.981 295.38C931.541 297.92 924.981 312.89 920.751 320.53C917.381 326.68 906.431 328.26 902.301 328.65L902.831 324.08C912.221 319.88 919.411 306.5 919.411 306.5L937.971 273.96L944.361 279.75C944.361 279.75 946.761 281.73 950.361 284.77Z" fill="#DCE7FF"/>
<path d="M935.582 259.29C935.586 265.293 933.765 271.155 930.362 276.1C926.342 281.946 920.359 286.158 913.5 287.97C906.64 289.783 899.358 289.077 892.975 285.98C886.591 282.883 881.53 277.6 878.708 271.09C875.886 264.58 875.492 257.275 877.596 250.499C879.7 243.723 884.163 237.926 890.176 234.159C896.189 230.393 903.353 228.906 910.367 229.97C917.382 231.033 923.784 234.576 928.41 239.956C933.036 245.335 935.58 252.195 935.582 259.29V259.29Z" fill="#FFB0B1"/>
<path opacity="0.1" d="M987.34 359.04C983.279 356.542 979.972 352.989 977.77 348.76C976.1 345.46 974.99 341.65 972.14 339.31C969.57 337.21 966.14 336.7 962.94 335.76C952.42 332.65 943.6 323.05 943.27 312.09C943.11 306.93 944.72 301.78 943.99 296.67C943.575 293.778 942.425 291.04 940.65 288.72C939.769 287.61 938.803 286.57 937.76 285.61C936.36 284.29 934.89 283.01 933.61 281.61C932.804 280.743 932.099 279.787 931.51 278.76C931.035 277.919 930.649 277.031 930.36 276.11C928.36 269.99 930.18 262.73 927.98 256.54L927.86 256.2C927.03 254 925.34 251.8 922.99 251.63C920.64 251.46 918.63 253.41 916.39 254.28C911.7 256.1 906.64 253 902.73 249.84C898.82 246.68 894.41 243.07 889.44 243.77C886.15 244.24 883.55 246.48 880.52 247.64C879.836 247.905 879.13 248.109 878.41 248.25C880.974 241.855 885.686 236.553 891.734 233.254C897.783 229.955 904.792 228.866 911.557 230.174C918.321 231.481 924.42 235.104 928.804 240.419C933.188 245.734 935.584 252.41 935.58 259.3C935.583 261.38 935.366 263.455 934.93 265.49C934.98 265.63 935.03 265.76 935.09 265.9C936.25 268.9 937.56 271.98 938.71 274.64L944.36 279.76C944.36 279.76 946.76 281.76 950.36 284.76C958.19 291.36 971.72 302.98 978.7 310.09C984.84 316.37 986.76 340.71 987.34 359.04Z" fill="black"/>
<path d="M880.169 229.37C881.599 226.46 882.309 223.2 884.019 220.44C886.529 216.44 890.909 213.88 895.409 212.33C907.159 208.28 931.989 202.4 939.409 212.33C940.869 214.33 942.079 216.55 944.099 217.93C945.639 218.98 947.499 219.43 949.189 220.22C953.919 222.44 956.939 227.28 958.549 232.22C960.159 237.16 960.639 242.46 961.819 247.55C963.329 254.08 965.979 260.27 968.619 266.42C971.729 273.68 975.029 281.21 981.029 286.34C989.219 293.34 991.029 303.25 998.629 310.93C1007.63 320.05 1007.34 335.1 1002.7 347.05C1002.09 348.62 1001.4 350.26 1001.64 351.93C1001.88 353.6 1003.12 355.12 1004.29 356.45L1009.21 362C997.569 364.81 984.399 358.73 978.979 348.06C977.309 344.76 976.199 340.96 973.339 338.61C970.779 336.51 967.339 336.01 964.149 335.07C953.629 331.95 944.809 322.34 944.479 311.38C944.319 306.23 945.929 301.08 945.199 295.98C944.793 293.069 943.638 290.312 941.849 287.98C939.099 284.39 934.949 281.98 932.709 277.98C928.919 271.29 931.799 262.6 929.069 255.42C928.229 253.22 926.549 251.02 924.199 250.85C921.849 250.68 919.839 252.63 917.589 253.5C912.909 255.32 907.849 252.23 903.939 249.06C900.029 245.89 895.619 242.29 890.639 243C887.349 243.46 884.759 245.7 881.729 246.87C879.489 247.73 874.949 248.5 872.989 246.61C868.849 242.8 878.439 232.93 880.169 229.37Z" fill="#591D4B"/>
<path opacity="0.1" d="M981.759 344.76C980.079 341.46 978.979 337.66 976.119 335.32C973.559 333.22 970.119 332.71 966.919 331.77C956.409 328.66 947.589 319.05 947.249 308.09C947.089 302.94 948.699 297.78 947.979 292.68C947.561 289.787 946.407 287.05 944.629 284.73C941.869 281.14 937.719 278.73 935.489 274.73C931.699 268.05 934.579 259.36 931.839 252.17C931.009 249.98 929.319 247.78 926.979 247.6C924.639 247.42 922.609 249.39 920.369 250.26C915.689 252.08 910.619 248.98 906.719 245.82C902.819 242.66 898.389 239.05 893.419 239.75C890.129 240.22 887.529 242.46 884.509 243.62C882.269 244.48 877.719 245.26 875.759 243.37C871.639 239.37 881.229 229.52 882.949 225.98C884.379 223.06 885.089 219.81 886.809 217.05C886.899 216.9 887 216.75 887.1 216.6C885.813 217.665 884.703 218.928 883.809 220.34C882.099 223.1 881.389 226.34 879.959 229.27C878.229 232.81 868.639 242.69 872.769 246.66C874.769 248.56 879.269 247.78 881.509 246.92C884.509 245.75 887.129 243.51 890.419 243.05C895.419 242.34 899.819 245.95 903.719 249.11C907.619 252.27 912.719 255.37 917.379 253.55C919.619 252.68 921.579 250.72 923.979 250.9C926.379 251.08 927.979 253.27 928.849 255.47C931.579 262.65 928.699 271.34 932.489 278.03C934.729 281.96 938.879 284.42 941.629 288.03C943.419 290.362 944.573 293.118 944.979 296.03C945.709 301.13 944.099 306.28 944.259 311.43C944.589 322.43 953.409 332 963.929 335.12C967.099 336.06 970.559 336.56 973.119 338.66C975.989 341.01 977.119 344.81 978.759 348.11C984.179 358.78 997.349 364.86 1008.99 362.05L1006.67 359.43C996.58 359.58 986.369 353.84 981.759 344.76Z" fill="black"/>
<path opacity="0.1" d="M912.819 299.12C911.509 301.12 907.759 311.36 904.629 320.3C901.699 319.16 899.039 311.89 899.039 311.89L914.659 289.67C916.259 291.87 915.209 295.52 912.819 299.12Z" fill="black"/>
<path d="M913.421 298.52C912.111 300.52 908.361 310.76 905.231 319.7C902.301 318.57 899.641 311.29 899.641 311.29L915.261 289.08C916.861 291.27 915.811 294.93 913.421 298.52Z" fill="#DCE7FF"/>
<path d="M822.598 400.68L813.938 373.37C813.836 373.051 813.797 372.714 813.825 372.379C813.853 372.044 813.947 371.719 814.101 371.42C814.256 371.122 814.467 370.857 814.724 370.641C814.981 370.425 815.278 370.261 815.598 370.16V370.16C816.243 369.959 816.941 370.021 817.54 370.332C818.139 370.642 818.591 371.178 818.798 371.82L827.458 399.1L826.598 404.81L822.598 400.68Z" fill="#BE8B87"/>
<path opacity="0.1" d="M814.76 370.97C815.406 370.766 816.107 370.826 816.708 371.137C817.31 371.448 817.764 371.985 817.971 372.63L826.63 399.91L825.98 404.19L826.61 404.85L827.471 399.14L818.76 371.86C818.554 371.218 818.102 370.682 817.502 370.372C816.903 370.061 816.205 369.999 815.56 370.2V370.2C815.018 370.376 814.55 370.728 814.23 371.2C814.4 371.109 814.578 371.032 814.76 370.97V370.97Z" fill="white"/>
<path d="M822.602 400.68L827.462 399.14L826.752 403.82L826.602 404.85L825.182 403.37L822.602 400.68Z" fill="#EFC8C4"/>
<path d="M825.18 403.37C825.264 403.263 825.37 403.175 825.49 403.11C825.56 403.066 825.642 403.042 825.725 403.042C825.808 403.042 825.889 403.066 825.96 403.11C826.028 403.192 826.085 403.283 826.13 403.38C826.196 403.49 826.286 403.584 826.393 403.655C826.5 403.726 826.622 403.772 826.75 403.79L826.6 404.79L825.18 403.37Z" fill="#727A9C"/>
<path d="M813.891 383.07C813.891 383.07 831.261 382.97 827.171 390.36C823.081 397.75 816.691 398.64 816.691 398.64L813.891 383.07Z" fill="#FFB0B1"/>
<path d="M705.862 51.4199H705.112C675.272 51.4199 648.882 67.2099 633.702 90.5099C618.522 67.2099 592.132 51.4199 562.292 51.4199H561.542C539.147 51.6333 517.742 60.6759 501.978 76.5827C486.214 92.4894 477.364 113.975 477.352 136.37C477.352 164.18 489.532 203.64 513.282 236.11C558.532 297.98 633.702 352.11 633.702 352.11C633.702 352.11 708.872 297.99 754.112 236.11C777.872 203.64 790.042 164.18 790.042 136.37C790.029 113.977 781.181 92.4926 765.419 76.5862C749.656 60.6797 728.254 51.6359 705.862 51.4199V51.4199ZM695.132 240.87C691.733 240.857 688.418 239.817 685.622 237.886C682.825 235.955 680.678 233.223 679.462 230.05H661.622C660.447 230.043 659.304 229.669 658.352 228.98C657.4 228.292 656.686 227.323 656.312 226.21L650.832 209.7L633.492 270.29C633.154 271.456 632.447 272.482 631.477 273.212C630.507 273.942 629.326 274.338 628.112 274.34H627.762C626.495 274.279 625.287 273.785 624.341 272.94C623.394 272.095 622.766 270.952 622.562 269.7L604.692 162.22L591.632 225.82C591.332 227.028 590.637 228.101 589.656 228.868C588.675 229.635 587.466 230.051 586.222 230.05H561.092C560.338 230.082 559.586 229.961 558.881 229.695C558.175 229.428 557.531 229.022 556.987 228.5C556.443 227.979 556.009 227.352 555.714 226.659C555.418 225.965 555.265 225.219 555.265 224.465C555.265 223.711 555.418 222.965 555.714 222.271C556.009 221.578 556.443 220.951 556.987 220.429C557.531 219.908 558.175 219.501 558.881 219.235C559.586 218.969 560.338 218.848 561.092 218.88H581.822L600.322 133.37C600.625 132.106 601.359 130.986 602.396 130.203C603.434 129.419 604.712 129.021 606.011 129.075C607.31 129.129 608.55 129.633 609.518 130.501C610.487 131.368 611.124 132.545 611.322 133.83L629.572 243.47L645.112 189.26C645.435 188.118 646.119 187.112 647.062 186.391C648.004 185.67 649.155 185.273 650.342 185.26H650.452C651.627 185.26 652.772 185.632 653.724 186.321C654.675 187.011 655.385 187.983 655.752 189.1L665.662 218.91H679.242C680.207 215.977 681.964 213.367 684.319 211.369C686.674 209.371 689.535 208.063 692.587 207.589C695.638 207.114 698.762 207.492 701.612 208.681C704.462 209.87 706.929 211.823 708.739 214.324C710.55 216.826 711.634 219.78 711.872 222.859C712.109 225.938 711.492 229.023 710.087 231.773C708.683 234.523 706.546 236.832 703.912 238.444C701.278 240.057 698.25 240.91 695.162 240.91L695.132 240.87Z" fill="#5AE9F5"/>
</g>
<defs>
<linearGradient id="paint0_linear" x1="356.329" y1="774.87" x2="356.329" y2="159.53" gradientUnits="userSpaceOnUse">
<stop stop-color="#808080" stop-opacity="0.25"/>
<stop offset="0.54" stop-color="#808080" stop-opacity="0.12"/>
<stop offset="1" stop-color="#808080" stop-opacity="0.1"/>
</linearGradient>
<clipPath id="clip0">
<rect width="1105.04" height="782.74" fill="white"/>
</clipPath>
</defs>
</svg>
